<mxfile host="app.diagrams.net" agent="Mozilla/5.0 (Macintosh; Intel Mac OS X 10_15_7) AppleWebKit/537.36 (KHTML, like Gecko) Chrome/136.0.0.0 Safari/537.36" version="27.1.4">
  <diagram name="Page-1" id="_bMzvmxhkDT8mbiFmCRq">
    <mxGraphModel dx="1262" dy="1953" grid="1" gridSize="10" guides="1" tooltips="1" connect="1" arrows="1" fold="1" page="1" pageScale="1" pageWidth="850" pageHeight="1100" math="0" shadow="0">
      <root>
        <mxCell id="0" />
        <mxCell id="1" parent="0" />
        <mxCell id="DeScKBcd3YFMsm5sncVs-1" value="Actor" style="shape=umlActor;verticalLabelPosition=bottom;verticalAlign=top;html=1;outlineConnect=0;" parent="1" vertex="1">
          <mxGeometry x="30" y="210" width="30" height="60" as="geometry" />
        </mxCell>
        <mxCell id="ls6FGDKh6DRK41c1XsRk-2" value="Load Balancer" style="whiteSpace=wrap;html=1;aspect=fixed;" vertex="1" parent="1">
          <mxGeometry x="220" y="197.5" width="85" height="85" as="geometry" />
        </mxCell>
        <mxCell id="ls6FGDKh6DRK41c1XsRk-3" value="" style="endArrow=classic;html=1;rounded=0;fontSize=12;startSize=8;endSize=8;curved=1;exitX=0.5;exitY=0.5;exitDx=0;exitDy=0;exitPerimeter=0;" edge="1" parent="1" source="DeScKBcd3YFMsm5sncVs-1" target="ls6FGDKh6DRK41c1XsRk-2">
          <mxGeometry width="50" height="50" relative="1" as="geometry">
            <mxPoint x="220" y="500" as="sourcePoint" />
            <mxPoint x="270" y="450" as="targetPoint" />
          </mxGeometry>
        </mxCell>
        <mxCell id="ls6FGDKh6DRK41c1XsRk-6" value="HTTP Request" style="edgeLabel;html=1;align=center;verticalAlign=middle;resizable=0;points=[];fontSize=12;" vertex="1" connectable="0" parent="ls6FGDKh6DRK41c1XsRk-3">
          <mxGeometry x="-0.0877" y="1" relative="1" as="geometry">
            <mxPoint as="offset" />
          </mxGeometry>
        </mxCell>
        <mxCell id="ls6FGDKh6DRK41c1XsRk-7" value="Server 1" style="whiteSpace=wrap;html=1;aspect=fixed;" vertex="1" parent="1">
          <mxGeometry x="312" y="50" width="80" height="80" as="geometry" />
        </mxCell>
        <mxCell id="ls6FGDKh6DRK41c1XsRk-8" value="Server 2" style="whiteSpace=wrap;html=1;aspect=fixed;" vertex="1" parent="1">
          <mxGeometry x="420" y="50" width="80" height="80" as="geometry" />
        </mxCell>
        <mxCell id="ls6FGDKh6DRK41c1XsRk-10" value="Server 3" style="whiteSpace=wrap;html=1;aspect=fixed;" vertex="1" parent="1">
          <mxGeometry x="530" y="50" width="80" height="80" as="geometry" />
        </mxCell>
        <mxCell id="ls6FGDKh6DRK41c1XsRk-18" value="" style="endArrow=none;html=1;rounded=0;fontSize=12;startSize=8;endSize=8;entryX=0.5;entryY=1;entryDx=0;entryDy=0;edgeStyle=orthogonalEdgeStyle;exitX=1;exitY=0.5;exitDx=0;exitDy=0;" edge="1" parent="1" source="ls6FGDKh6DRK41c1XsRk-2" target="ls6FGDKh6DRK41c1XsRk-7">
          <mxGeometry width="50" height="50" relative="1" as="geometry">
            <mxPoint x="350" y="240" as="sourcePoint" />
            <mxPoint x="400" y="170" as="targetPoint" />
            <Array as="points">
              <mxPoint x="305" y="220" />
              <mxPoint x="352" y="220" />
            </Array>
          </mxGeometry>
        </mxCell>
        <mxCell id="ls6FGDKh6DRK41c1XsRk-20" value="" style="endArrow=none;html=1;rounded=0;fontSize=12;startSize=8;endSize=8;entryX=0.5;entryY=1;entryDx=0;entryDy=0;edgeStyle=orthogonalEdgeStyle;exitX=1;exitY=0.25;exitDx=0;exitDy=0;" edge="1" parent="1" target="ls6FGDKh6DRK41c1XsRk-10">
          <mxGeometry width="50" height="50" relative="1" as="geometry">
            <mxPoint x="305" y="258.75" as="sourcePoint" />
            <mxPoint x="626" y="170" as="targetPoint" />
          </mxGeometry>
        </mxCell>
        <mxCell id="ls6FGDKh6DRK41c1XsRk-21" value="Server N" style="whiteSpace=wrap;html=1;aspect=fixed;" vertex="1" parent="1">
          <mxGeometry x="640" y="50" width="80" height="80" as="geometry" />
        </mxCell>
        <mxCell id="ls6FGDKh6DRK41c1XsRk-22" value="" style="endArrow=none;html=1;rounded=0;fontSize=12;startSize=8;endSize=8;entryX=0.5;entryY=1;entryDx=0;entryDy=0;edgeStyle=orthogonalEdgeStyle;exitX=1.005;exitY=0.925;exitDx=0;exitDy=0;exitPerimeter=0;" edge="1" parent="1" source="ls6FGDKh6DRK41c1XsRk-2">
          <mxGeometry width="50" height="50" relative="1" as="geometry">
            <mxPoint x="241.5" y="269.9949999999999" as="sourcePoint" />
            <mxPoint x="677.5" y="128.97" as="targetPoint" />
            <Array as="points">
              <mxPoint x="305" y="270" />
              <mxPoint x="678" y="270" />
              <mxPoint x="678" y="129" />
            </Array>
          </mxGeometry>
        </mxCell>
        <mxCell id="ls6FGDKh6DRK41c1XsRk-23" value="" style="endArrow=none;html=1;rounded=0;fontSize=12;startSize=8;endSize=8;entryX=0.5;entryY=1;entryDx=0;entryDy=0;exitX=0.997;exitY=0.576;exitDx=0;exitDy=0;exitPerimeter=0;edgeStyle=orthogonalEdgeStyle;" edge="1" parent="1" source="ls6FGDKh6DRK41c1XsRk-2">
          <mxGeometry width="50" height="50" relative="1" as="geometry">
            <mxPoint x="300.0049999999999" y="245.77999999999997" as="sourcePoint" />
            <mxPoint x="462.51" y="130" as="targetPoint" />
          </mxGeometry>
        </mxCell>
        <mxCell id="ls6FGDKh6DRK41c1XsRk-24" value="Redis (Master)" style="shape=datastore;whiteSpace=wrap;html=1;" vertex="1" parent="1">
          <mxGeometry x="325" y="-170" width="60" height="80" as="geometry" />
        </mxCell>
        <mxCell id="ls6FGDKh6DRK41c1XsRk-25" value="Redis&lt;div&gt;(Replica)&lt;/div&gt;" style="shape=datastore;whiteSpace=wrap;html=1;" vertex="1" parent="1">
          <mxGeometry x="453" y="-170" width="60" height="80" as="geometry" />
        </mxCell>
        <mxCell id="ls6FGDKh6DRK41c1XsRk-26" value="" style="endArrow=classic;html=1;rounded=0;fontSize=12;startSize=8;endSize=8;curved=1;" edge="1" parent="1">
          <mxGeometry width="50" height="50" relative="1" as="geometry">
            <mxPoint x="386" y="-130.41999999999996" as="sourcePoint" />
            <mxPoint x="452" y="-130.41999999999996" as="targetPoint" />
            <Array as="points">
              <mxPoint x="421" y="-130.41999999999996" />
            </Array>
          </mxGeometry>
        </mxCell>
        <mxCell id="ls6FGDKh6DRK41c1XsRk-28" value="" style="endArrow=classic;startArrow=classic;html=1;rounded=0;fontSize=12;startSize=8;endSize=8;curved=1;" edge="1" parent="1">
          <mxGeometry width="50" height="50" relative="1" as="geometry">
            <mxPoint x="355" y="50" as="sourcePoint" />
            <mxPoint x="355" y="-90" as="targetPoint" />
          </mxGeometry>
        </mxCell>
        <mxCell id="ls6FGDKh6DRK41c1XsRk-32" value="READ &amp;amp; WRITE" style="edgeLabel;html=1;align=center;verticalAlign=middle;resizable=0;points=[];fontSize=12;" vertex="1" connectable="0" parent="ls6FGDKh6DRK41c1XsRk-28">
          <mxGeometry x="0.0286" relative="1" as="geometry">
            <mxPoint x="-3" y="-18" as="offset" />
          </mxGeometry>
        </mxCell>
        <mxCell id="ls6FGDKh6DRK41c1XsRk-29" value="" style="endArrow=classic;startArrow=classic;html=1;rounded=0;fontSize=12;startSize=8;endSize=8;curved=1;exitX=0.338;exitY=-0.049;exitDx=0;exitDy=0;exitPerimeter=0;entryX=0.5;entryY=1;entryDx=0;entryDy=0;" edge="1" parent="1" target="ls6FGDKh6DRK41c1XsRk-24">
          <mxGeometry width="50" height="50" relative="1" as="geometry">
            <mxPoint x="462.03999999999996" y="49.9999999999997" as="sourcePoint" />
            <mxPoint x="360" y="-80" as="targetPoint" />
            <Array as="points">
              <mxPoint x="460" y="-20" />
            </Array>
          </mxGeometry>
        </mxCell>
        <mxCell id="ls6FGDKh6DRK41c1XsRk-33" value="READ &amp;amp; WRITE" style="edgeLabel;html=1;align=center;verticalAlign=middle;resizable=0;points=[];fontSize=12;" vertex="1" connectable="0" parent="ls6FGDKh6DRK41c1XsRk-29">
          <mxGeometry x="0.0403" y="7" relative="1" as="geometry">
            <mxPoint x="12" y="11" as="offset" />
          </mxGeometry>
        </mxCell>
        <mxCell id="ls6FGDKh6DRK41c1XsRk-30" value="" style="endArrow=classic;startArrow=classic;html=1;rounded=0;fontSize=12;startSize=8;endSize=8;curved=1;exitX=0.338;exitY=-0.049;exitDx=0;exitDy=0;exitPerimeter=0;entryX=0.658;entryY=0.982;entryDx=0;entryDy=0;entryPerimeter=0;" edge="1" parent="1" target="ls6FGDKh6DRK41c1XsRk-24">
          <mxGeometry width="50" height="50" relative="1" as="geometry">
            <mxPoint x="561.04" y="49.9999999999997" as="sourcePoint" />
            <mxPoint x="460" y="-87" as="targetPoint" />
            <Array as="points">
              <mxPoint x="559" y="-20" />
            </Array>
          </mxGeometry>
        </mxCell>
        <mxCell id="ls6FGDKh6DRK41c1XsRk-34" value="READ &amp;amp; WRITE" style="edgeLabel;html=1;align=center;verticalAlign=middle;resizable=0;points=[];fontSize=12;" vertex="1" connectable="0" parent="ls6FGDKh6DRK41c1XsRk-30">
          <mxGeometry x="-0.0461" y="9" relative="1" as="geometry">
            <mxPoint x="51" y="39" as="offset" />
          </mxGeometry>
        </mxCell>
        <mxCell id="ls6FGDKh6DRK41c1XsRk-31" value="" style="endArrow=classic;startArrow=classic;html=1;rounded=0;fontSize=12;startSize=8;endSize=8;curved=1;exitX=0.338;exitY=-0.049;exitDx=0;exitDy=0;exitPerimeter=0;entryX=0.85;entryY=0.95;entryDx=0;entryDy=0;entryPerimeter=0;" edge="1" parent="1" target="ls6FGDKh6DRK41c1XsRk-24">
          <mxGeometry width="50" height="50" relative="1" as="geometry">
            <mxPoint x="677.04" y="50.9999999999997" as="sourcePoint" />
            <mxPoint x="480" y="-90" as="targetPoint" />
            <Array as="points">
              <mxPoint x="675" y="-19" />
            </Array>
          </mxGeometry>
        </mxCell>
        <mxCell id="ls6FGDKh6DRK41c1XsRk-35" value="READ &amp;amp; WRITE" style="edgeLabel;html=1;align=center;verticalAlign=middle;resizable=0;points=[];fontSize=12;" vertex="1" connectable="0" parent="ls6FGDKh6DRK41c1XsRk-31">
          <mxGeometry x="-0.7584" y="23" relative="1" as="geometry">
            <mxPoint x="19" y="18" as="offset" />
          </mxGeometry>
        </mxCell>
      </root>
    </mxGraphModel>
  </diagram>
</mxfile>
